<?xml version="1.0" encoding="utf-8"?>
<!-- Generator: Adobe Illustrator 19.0.0, SVG Export Plug-In . SVG Version: 6.00 Build 0)  -->
<svg version="1.1" id="Layer_1" xmlns="http://www.w3.org/2000/svg" xmlns:xlink="http://www.w3.org/1999/xlink" x="0px" y="0px"
	 viewBox="0 0 96 96" style="enable-background:new 0 0 96 96;" xml:space="preserve">
<style type="text/css">
	.st0{fill:#F5CF87;}
	.st1{fill:#CBAC72;}
	.st2{fill:#E0995E;}
	.st3{fill:#4F5D73;}
</style>
<g id="XMLID_1_">
	<path id="XMLID_3_" class="st0" d="M48,15.5c17.9,0,32.5,14.6,32.5,32.5S65.9,80.5,48,80.5c-17.9,0-32.5-14.6-32.5-32.5
		S30.1,15.5,48,15.5"/>
	<path id="XMLID_4_" class="st1" d="M47.3,42.6L32,60.4c-0.7,0.7-0.7,1.8,0,2.4l0.8,0.8l-2,2c-0.6,0.6-0.6,1.5,0,2.1
		c0.3,0.3,0.7,0.4,1.1,0.4s0.8-0.1,1.1-0.4l2-2l0.6,0.6c0.4,0.4,0.8,0.5,1.3,0.5c0.4,0,0.9-0.2,1.2-0.5l18-15.1
		c-2.1-0.5-4.1-1.5-5.6-3C48.7,46.7,47.7,44.6,47.3,42.6"/>
	<path id="XMLID_5_" class="st1" d="M58.4,31.3c-5.2,0-9.3,4.2-9.3,9.3s4.2,9.3,9.3,9.3c5.2,0,9.3-4.2,9.3-9.3S63.5,31.3,58.4,31.3"
		/>
	<circle id="XMLID_6_" class="st2" cx="58.4" cy="37.6" r="9.3"/>
	<path id="XMLID_7_" class="st3" d="M47.3,40.1L32,57.9c-0.7,0.7-0.7,1.8,0,2.4l0.8,0.8l-2,2c-0.6,0.6-0.6,1.5,0,2.1
		c0.3,0.3,0.7,0.4,1.1,0.4c0.4,0,0.8-0.1,1.1-0.4l2-2l0.6,0.6c0.7,0.7,1.8,0.7,2.4,0l18-15.1c-2.1-0.5-4.1-1.5-5.6-3
		C48.7,44.1,47.7,42.1,47.3,40.1z"/>
	<path id="XMLID_8_" class="st3" d="M64.3,44.9c-2.8-0.9-5.5-2.5-7.7-4.7c-2.5-2.5-4.2-5.6-5-8.9c-3.5,3.7-3.5,9.4,0.1,13
		c1.8,1.8,4.2,2.7,6.6,2.7C60.5,47,62.5,46.3,64.3,44.9z"/>
	<path id="XMLID_9_" class="st3" d="M65,31c-1.8-1.8-4.2-2.7-6.6-2.7c-1.4,0-2.8,0.3-4.2,1c0.6,3.3,2,6.3,4.6,8.7
		c2.2,2.2,4.9,3.7,7.7,4.3C68.4,38.9,68,34.2,65,31z"/>
</g>
</svg>
